<?xml version="1.0" encoding="UTF-8"?>
<svg version="1.1" xmlns="http://www.w3.org/2000/svg" width="114" height="110">
<path d="M0 0 C37.62 0 75.24 0 114 0 C114 36.3 114 72.6 114 110 C76.38 110 38.76 110 0 110 C0 73.7 0 37.4 0 0 Z " fill="#83735C" transform="translate(0,0)"/>
<path d="M0 0 C0.495 5.445 0.495 5.445 1 11 C-2.3 11.33 -5.6 11.66 -9 12 C-9.33 13.65 -9.66 15.3 -10 17 C-9.13375 16.814375 -8.2675 16.62875 -7.375 16.4375 C-4 16 -4 16 -0.75 16.5625 C0.61125 16.7790625 0.61125 16.7790625 2 17 C2.66 16.34 3.32 15.68 4 15 C4.495 17.475 4.495 17.475 5 20 C10.28 21.65 15.56 23.3 21 25 C21 25.66 21 26.32 21 27 C21.66 27 22.32 27 23 27 C23 27.99 23 28.98 23 30 C25.33075929 29.04134491 25.33075929 29.04134491 27 26 C27.9811923 29.12197549 28.15757314 30.60143265 26.9375 33.6875 C24.44173136 36.66632064 22.8023309 37.26878252 19 38 C15.625 37.75 15.625 37.75 12 37 C11.32453125 36.86335938 10.6490625 36.72671875 9.953125 36.5859375 C5.86219871 35.67855159 2.29224591 34.71126133 -1 32 C-2.3125 28.8125 -2.3125 28.8125 -3 26 C-5.28836222 25.58013054 -5.28836222 25.58013054 -8 26 C-8.721875 26.7425 -9.44375 27.485 -10.1875 28.25 C-15.46713512 33.4123099 -21.63016801 35.22982122 -28.9375 35.375 C-32.69602502 35.3209205 -33.76859418 35.15427054 -37 33 C-37 32.34 -37 31.68 -37 31 C-37.66 31 -38.32 31 -39 31 C-42.44789032 27.02166501 -42.32329301 23.2121456 -42.30078125 18.20703125 C-42 16 -42 16 -40 14 C-36.5 14.125 -36.5 14.125 -33 15 C-31.5625 17.0625 -31.5625 17.0625 -31 19 C-30.34 18.67 -29.68 18.34 -29 18 C-27.68 19.32 -26.36 20.64 -25 22 C-19.07793123 19.70614902 -19.07793123 19.70614902 -14 16 C-13.20376178 13.90584196 -13.20376178 13.90584196 -13 12 C-14.32 12.33 -15.64 12.66 -17 13 C-17.10824843 11.3973218 -17.18570645 9.79254252 -17.25 8.1875 C-17.29640625 7.29417969 -17.3428125 6.40085937 -17.390625 5.48046875 C-17 3 -17 3 -15.265625 1.22265625 C-12.87268891 -0.06870409 -11.19459675 -0.51007015 -8.5 -0.75 C-7.7471875 -0.82734375 -6.994375 -0.9046875 -6.21875 -0.984375 C-4 -1 -4 -1 0 0 Z " fill="#544835" transform="translate(64,48)"/>
<path d="M0 0 C2.8125 2.45703125 2.8125 2.45703125 3.3984375 6.34765625 C3.3587752 7.80194062 3.28750701 9.25564753 3.1875 10.70703125 C3.16042969 11.45210937 3.13335938 12.1971875 3.10546875 12.96484375 C3.03500808 14.79682118 2.92738993 16.62730276 2.8125 18.45703125 C2.1525 18.45703125 1.4925 18.45703125 0.8125 18.45703125 C0.915625 19.22015625 1.01875 19.98328125 1.125 20.76953125 C1.021875 21.65640625 0.91875 22.54328125 0.8125 23.45703125 C-3.03916816 26.47822821 -6.05802543 26.84093452 -10.875 26.76953125 C-12.58236328 26.76373047 -12.58236328 26.76373047 -14.32421875 26.7578125 C-17.1875 26.45703125 -17.1875 26.45703125 -19.1875 24.45703125 C-19.8125 22.33203125 -19.8125 22.33203125 -20.1875 20.45703125 C-20.8475 21.44703125 -21.5075 22.43703125 -22.1875 23.45703125 C-22.1875 16.85703125 -22.1875 10.25703125 -22.1875 3.45703125 C-20.8675 3.12703125 -19.5475 2.79703125 -18.1875 2.45703125 C-18.1875 1.79703125 -18.1875 1.13703125 -18.1875 0.45703125 C-11.34460046 -2.54424048 -7.02374573 -3.39997496 0 0 Z " fill="#665945" transform="translate(22.1875,28.54296875)"/>
<path d="M0 0 C0.33 1.32 0.66 2.64 1 4 C1.66 4 2.32 4 3 4 C3.08678303 7.95819611 3.14031733 11.91614934 3.1875 15.875 C3.21263672 17.00292969 3.23777344 18.13085938 3.26367188 19.29296875 C3.27333984 20.36933594 3.28300781 21.44570313 3.29296875 22.5546875 C3.3086792 23.54968262 3.32438965 24.54467773 3.34057617 25.56982422 C3.22818604 26.37178223 3.1157959 27.17374023 3 28 C-0.71793677 30.47862452 -3.69279347 30.53102546 -8 30 C-11.40326928 28.63869229 -12.66748627 27.52721454 -14.62109375 24.4296875 C-16.32870114 20.18243739 -16.37402647 16.76921439 -16.25 12.25 C-16.24484375 11.48300781 -16.2396875 10.71601562 -16.234375 9.92578125 C-16.15543061 4.31086121 -16.15543061 4.31086121 -15 2 C-9.79447604 -1.51372868 -5.88349981 -1.08517885 0 0 Z " fill="#0A0805" transform="translate(111,30)"/>
<path d="M0 0 C3.6875 1.1875 3.6875 1.1875 4.9765625 3.23046875 C5.35554688 4.04128906 5.73453125 4.85210937 6.125 5.6875 C7.66015603 9.15891789 7.66015603 9.15891789 10.7734375 11.00390625 C13.23765131 11.3238533 13.23765131 11.3238533 16.6875 11.1875 C16.6875 11.5175 16.6875 11.8475 16.6875 12.1875 C6.92375255 12.76183809 6.92375255 12.76183809 2.6875 9.1875 C2.3575 8.1975 2.0275 7.2075 1.6875 6.1875 C0.6975 5.8575 -0.2925 5.5275 -1.3125 5.1875 C-1.10753906 5.80238281 -0.90257812 6.41726562 -0.69140625 7.05078125 C0.43489583 10.4296875 1.56119792 13.80859375 2.6875 17.1875 C15.38522783 17.49582755 15.38522783 17.49582755 26.06640625 11.5234375 C27.6875 10.1875 27.6875 10.1875 31.25 9.25 C35.96893314 10.53698177 37.45179507 13.15335176 40.109375 17.12109375 C41.59627804 19.46932829 41.59627804 19.46932829 44.6875 20.1875 C51.35920145 20.94492679 51.35920145 20.94492679 57.671875 19.17578125 C60.16891883 17.11757433 61.89648915 14.87401627 63.6875 12.1875 C64.6686923 15.30947549 64.84507314 16.78893265 63.625 19.875 C61.12923136 22.85382064 59.4898309 23.45628252 55.6875 24.1875 C52.3125 23.9375 52.3125 23.9375 48.6875 23.1875 C48.01203125 23.05085938 47.3365625 22.91421875 46.640625 22.7734375 C42.54969871 21.86605159 38.97974591 20.89876133 35.6875 18.1875 C34.375 15 34.375 15 33.6875 12.1875 C31.39913778 11.76763054 31.39913778 11.76763054 28.6875 12.1875 C27.965625 12.93 27.24375 13.6725 26.5 14.4375 C21.22036488 19.5998099 15.05733199 21.41732122 7.75 21.5625 C3.99147498 21.5084205 2.91890582 21.34177054 -0.3125 19.1875 C-0.3125 18.5275 -0.3125 17.8675 -0.3125 17.1875 C-0.9725 17.1875 -1.6325 17.1875 -2.3125 17.1875 C-5.76039032 13.20916501 -5.63579301 9.3996456 -5.61328125 4.39453125 C-5.08812477 0.54111034 -3.73345565 0.21132768 0 0 Z " fill="#5A4F3A" transform="translate(27.3125,61.8125)"/>
<path d="M0 0 C3.48491788 1.39396715 5.242385 3.42308423 7.8125 6.125 C10.47783035 7.444018 10.47783035 7.444018 12.8125 8.125 C12.8125 8.785 12.8125 9.445 12.8125 10.125 C18.2575 10.62 18.2575 10.62 23.8125 11.125 C23.8125 12.115 23.8125 13.105 23.8125 14.125 C19.16220878 15.67509707 15.34328428 15.71856941 10.75 13.9375 C7.8125 12.125 7.8125 12.125 4.875 9.4375 C1.95133591 6.83719864 1.95133591 6.83719864 -1.875 6.625 C-5.44157781 7.16335137 -6.01391331 7.45741633 -8.1875 10.125 C-12.68804522 13.64941929 -16.54641475 13.4907815 -22 13.3125 C-22.78826172 13.29896484 -23.57652344 13.28542969 -24.38867188 13.27148438 C-26.32191169 13.23633456 -28.25479682 13.18253361 -30.1875 13.125 C-34.72321429 5.54464286 -34.72321429 5.54464286 -34.1875 1.125 C-32.8675 1.455 -31.5475 1.785 -30.1875 2.125 C-30.1875 3.115 -30.1875 4.105 -30.1875 5.125 C-24.94359921 7.83152944 -19.26392279 7.95038172 -13.625 6.4375 C-11.23564016 5.20712521 -11.23564016 5.20712521 -9.3203125 3.84375 C-3.88580202 0.15238439 -3.88580202 0.15238439 0 0 Z " fill="#322A1B" transform="translate(60.1875,65.875)"/>
<path d="M0 0 C2.43718285 3.65577427 2.29880388 5.58669902 2.3125 9.9375 C2.32925781 11.16339844 2.34601562 12.38929687 2.36328125 13.65234375 C1.97945551 17.18931859 1.62576055 18.63041121 -1 21 C-3.15625 21.53125 -3.15625 21.53125 -5.5 21.5 C-6.2734375 21.5103125 -7.046875 21.520625 -7.84375 21.53125 C-10 21 -10 21 -11.75 19.33984375 C-14.15141357 14.84469773 -13.70036196 9.93620497 -13 5 C-9.55756802 -0.59395197 -6.08459465 -0.79797963 0 0 Z " fill="#12100A" transform="translate(18,31)"/>
<path d="M0 0 C0.33 1.32 0.66 2.64 1 4 C1.66 4 2.32 4 3 4 C3.08678303 7.95819611 3.14031733 11.91614934 3.1875 15.875 C3.21263672 17.00292969 3.23777344 18.13085938 3.26367188 19.29296875 C3.27333984 20.36933594 3.28300781 21.44570313 3.29296875 22.5546875 C3.3086792 23.54968262 3.32438965 24.54467773 3.34057617 25.56982422 C3.22818604 26.37178223 3.1157959 27.17374023 3 28 C-0.71793677 30.47862452 -3.69279347 30.53102546 -8 30 C-11.40326928 28.63869229 -12.66748627 27.52721454 -14.62109375 24.4296875 C-16.32870114 20.18243739 -16.37402647 16.76921439 -16.25 12.25 C-16.24484375 11.48300781 -16.2396875 10.71601562 -16.234375 9.92578125 C-16.15543061 4.31086121 -16.15543061 4.31086121 -15 2 C-9.79447604 -1.51372868 -5.88349981 -1.08517885 0 0 Z M-11.70703125 6.21875 C-14.20538363 9.66058893 -13.36346157 13.93415869 -13 18 C-12.34706391 21.61423207 -11.66544357 24.33455643 -9 27 C-5.22672622 27.41925264 -2.8579713 27.47188421 0.5 25.625 C2.89601093 21.43198087 2.0072678 17.59257766 1 13 C-0.39240096 8.65820718 -0.39240096 8.65820718 -3 5 C-7.60980433 4.49916251 -7.60980433 4.49916251 -11.70703125 6.21875 Z " fill="#4E422F" transform="translate(111,30)"/>
<path d="M0 0 C2.75 1.9375 2.75 1.9375 4 5 C4.87724471 11.34224213 3.95599399 17.58312301 0.75 23.18359375 C-1 25 -1 25 -3.48046875 25.390625 C-4.82044922 25.32101563 -4.82044922 25.32101563 -6.1875 25.25 C-7.08855469 25.21390625 -7.98960938 25.1778125 -8.91796875 25.140625 C-9.60503906 25.09421875 -10.29210937 25.0478125 -11 25 C-11.66 23.68 -12.32 22.36 -13 21 C-13.66 21 -14.32 21 -15 21 C-15.80947706 17.43182513 -16.16206411 14.09518144 -16.1875 10.4375 C-16.20167969 9.50808594 -16.21585938 8.57867187 -16.23046875 7.62109375 C-15.99036157 4.89038333 -15.4801759 3.29037745 -14 1 C-9.79868459 -1.10065771 -4.56567735 -0.52872285 0 0 Z M-12 3.75 C-14.97383731 8.58248563 -14.91474098 13.45819421 -14 19 C-12.88132487 21.39015145 -12.88132487 21.39015145 -11 23 C-8.83452197 23.62963937 -8.83452197 23.62963937 -6.5 23.5 C-5.7265625 23.5103125 -4.953125 23.520625 -4.15625 23.53125 C-1.89075491 23.15335453 -1.89075491 23.15335453 -0.23828125 21.41015625 C1.44035407 18.14290707 1.3624935 15.59471666 1.3125 11.9375 C1.30863281 10.70902344 1.30476563 9.48054688 1.30078125 8.21484375 C1.24253222 4.84945335 1.24253222 4.84945335 -1 2 C-5.7086873 1.38246724 -7.88828981 1.35150239 -12 3.75 Z " fill="#3E3527" transform="translate(19,29)"/>
<path d="M0 0 C2.78228506 2.56826313 2.38846028 5.83363429 2.625 9.5 C-1.335 10.16 -5.295 10.82 -9.375 11.5 C-9.375 10.84 -9.375 10.18 -9.375 9.5 C-10.365 9.17 -11.355 8.84 -12.375 8.5 C-12.73289474 3.13157895 -12.73289474 3.13157895 -11.3125 0.625 C-7.70371705 -1.47042236 -3.94995765 -0.83157003 0 0 Z " fill="#453B2A" transform="translate(62.375,49.5)"/>
<path d="M0 0 C1.32 0 2.64 0 4 0 C4 0.66 4 1.32 4 2 C3.01 2 2.02 2 1 2 C0.91867358 5.04221065 0.85934626 8.0822238 0.8125 11.125 C0.78736328 11.9809375 0.76222656 12.836875 0.73632812 13.71875 C0.67623106 18.9271625 1.08711452 22.48788328 4 27 C7.50172678 29.85325886 11.70238473 29.20464835 16 29 C16.99 28.67 17.98 28.34 19 28 C19 28.66 19 29.32 19 30 C14.6539583 32.47359743 10.90019701 32.54349233 6 32 C2.07893789 30.55091183 1.21677799 29.41032977 -0.75 25.6875 C-3.29616948 18.17630004 -4.59514251 9.85492774 -1.5 2.375 C-1.005 1.59125 -0.51 0.8075 0 0 Z " fill="#6F604A" transform="translate(95,30)"/>
<path d="M0 0 C2.97851562 0.1953125 2.97851562 0.1953125 5.95703125 0.390625 C5.95703125 1.050625 5.95703125 1.710625 5.95703125 2.390625 C6.57578125 2.6175 7.19453125 2.844375 7.83203125 3.078125 C10.66270417 4.8264818 10.95954431 6.24436663 11.95703125 9.390625 C12.2578125 12.36328125 12.2578125 12.36328125 12.26953125 15.453125 C12.29466797 16.98646484 12.29466797 16.98646484 12.3203125 18.55078125 C11.90420068 21.80361235 11.36230433 23.16876054 8.95703125 25.390625 C6.58203125 25.88671875 6.58203125 25.88671875 3.95703125 25.828125 C3.09078125 25.82683594 2.22453125 25.82554688 1.33203125 25.82421875 C-1.46021246 25.31445057 -2.34858834 24.62828294 -4.04296875 22.390625 C-5.6968151 16.52698796 -6.72063419 7.536901 -3.7890625 2.0390625 C-2.04296875 0.390625 -2.04296875 0.390625 0 0 Z M-2.75 3.609375 C-5.24835238 7.05121393 -4.40643032 11.32478369 -4.04296875 15.390625 C-3.39003266 19.00485707 -2.70841232 21.72518143 -0.04296875 24.390625 C3.73030503 24.80987764 6.09905995 24.86250921 9.45703125 23.015625 C11.85304218 18.82260587 10.96429905 14.98320266 9.95703125 10.390625 C8.56463029 6.04883218 8.56463029 6.04883218 5.95703125 2.390625 C1.34722692 1.88978751 1.34722692 1.88978751 -2.75 3.609375 Z " fill="#362E1E" transform="translate(102.04296875,32.609375)"/>
<path d="M0 0 C0.66 0.66 1.32 1.32 2 2 C1.75 3.875 1.75 3.875 1 6 C0.773125 6.70125 0.54625 7.4025 0.3125 8.125 C-1.68993374 10.98561962 -3.63300138 11.30118897 -7 12 C-10.375 11.75 -10.375 11.75 -14 11 C-14.67546875 10.86335938 -15.3509375 10.72671875 -16.046875 10.5859375 C-20.13126333 9.68000174 -23.70238936 8.69804507 -27 6 C-27.8125 3.3125 -27.8125 3.3125 -28 1 C-22.125 4.75 -22.125 4.75 -21 7 C-16.3634305 8.54552317 -11.83699499 8.62791233 -7 8 C-3.32564826 6.1592706 -1.31666174 3.94998521 0 0 Z " fill="#625540" transform="translate(90,74)"/>
<path d="M0 0 C4.19965118 0.9965274 6.44516788 2.01811995 9.6875 4.875 C10.14645455 7.92245819 10.2692278 10.1247965 10.0625 13.125 C10.03542969 13.87007812 10.00835938 14.61515625 9.98046875 15.3828125 C9.91000808 17.21478993 9.80238993 19.04527151 9.6875 20.875 C9.0275 20.875 8.3675 20.875 7.6875 20.875 C7.749375 22.050625 7.749375 22.050625 7.8125 23.25 C7.6875 25.875 7.6875 25.875 5.6875 27.875 C4.6975 27.875 3.7075 27.875 2.6875 27.875 C3.120625 27.1015625 3.120625 27.1015625 3.5625 26.3125 C6.26025694 20.46735995 7.82872127 14.2898648 6.6875 7.875 C4.63931477 4.80272216 3.21206142 3.24979976 -0.42578125 2.35546875 C-2.37730595 2.09549654 -4.34627552 1.97497752 -6.3125 1.875 C-3.3125 -0.125 -3.3125 -0.125 0 0 Z " fill="#695E4B" transform="translate(15.3125,26.125)"/>
<path d="M0 0 C2.93777529 0.50651298 5.48099864 1.40463247 8 3 C8.2475 3.680625 8.495 4.36125 8.75 5.0625 C9.80439776 7.17997243 9.80439776 7.17997243 11.8984375 7.48046875 C13.92485781 7.72577226 15.96302126 7.86858202 18 8 C18 8.33 18 8.66 18 9 C8.23625255 9.57433809 8.23625255 9.57433809 4 6 C3.67 5.01 3.34 4.02 3 3 C2.01 2.67 1.02 2.34 0 2 C0.20496094 2.61488281 0.40992187 3.22976562 0.62109375 3.86328125 C1.74739583 7.2421875 2.87369792 10.62109375 4 14 C8.62 14 13.24 14 18 14 C18 14.33 18 14.66 18 15 C15.58145554 15.13536629 13.17050217 15.23420279 10.75 15.3125 C9.72712891 15.3753418 9.72712891 15.3753418 8.68359375 15.43945312 C4.95409866 15.52997485 3.34245194 15.30880373 0.53515625 12.77734375 C-1.04894621 9.91144847 -1.46933355 8.47319994 -1.3125 5.25 C-1.28800781 4.47140625 -1.26351563 3.6928125 -1.23828125 2.890625 C-1 1 -1 1 0 0 Z " fill="#443A29" transform="translate(26,65)"/>
<path d="M0 0 C0.33 1.32 0.66 2.64 1 4 C1.66 4 2.32 4 3 4 C3 6.64 3 9.28 3 12 C2.34 11.01 1.68 10.02 1 9 C0.29875 8.319375 -0.4025 7.63875 -1.125 6.9375 C-3 5 -3 5 -3 3 C-7.71403788 3.47939368 -11.66579301 3.96834048 -16 6 C-15.875 4.1875 -15.875 4.1875 -15 2 C-9.95632452 -1.65666473 -5.79787344 -1.06938554 0 0 Z " fill="#635542" transform="translate(111,30)"/>
<path d="M0 0 C0.268125 0.763125 0.53625 1.52625 0.8125 2.3125 C1.94424112 4.87380884 2.91223401 6.19692938 5 8 C1.67747217 7.6166314 0.68969373 6.71667689 -1.875 4.375 C-4.73655204 1.7313055 -4.73655204 1.7313055 -7.9375 1.875 C-11.27545415 3.10118724 -13.56992913 4.68822766 -16.2890625 6.94140625 C-18 8 -18 8 -22 8 C-22 7.34 -22 6.68 -22 6 C-14.86290342 0.4693633 -8.89871472 -2.34280321 0 0 Z " fill="#463C29" transform="translate(66,65)"/>
<path d="M0 0 C1.8125 0.125 1.8125 0.125 4 1 C5.6875 4 5.6875 4 7 7 C8.49743119 8.49743119 9.98824239 8.33202693 12.0625 8.5625 C13.361875 8.706875 14.66125 8.85125 16 9 C16 9.66 16 10.32 16 11 C14.06318839 11.08107583 12.1254066 11.13922475 10.1875 11.1875 C9.10855469 11.22230469 8.02960937 11.25710937 6.91796875 11.29296875 C4 11 4 11 2.15625 9.75 C0.13135045 6.68528717 0.29615812 3.61312912 0 0 Z " fill="#241E0F" transform="translate(26,67)"/>
<path d="M0 0 C0.66 0.33 1.32 0.66 2 1 C2.26666422 7.53327345 2.09562817 13.33919954 -1.25 19.18359375 C-3 21 -3 21 -5.48046875 21.390625 C-6.82044922 21.32101563 -6.82044922 21.32101563 -8.1875 21.25 C-9.08855469 21.21390625 -9.98960938 21.1778125 -10.91796875 21.140625 C-11.60503906 21.09421875 -12.29210937 21.0478125 -13 21 C-13.66 19.68 -14.32 18.36 -15 17 C-14.34 17.33 -13.68 17.66 -13 18 C-11.45976004 18.06950541 -9.91665012 18.08452357 -8.375 18.0625 C-7.55773437 18.05347656 -6.74046875 18.04445313 -5.8984375 18.03515625 C-5.27195312 18.02355469 -4.64546875 18.01195313 -4 18 C-0.96089654 12.053928 -0.34773428 6.63093294 0 0 Z " fill="#483F31" transform="translate(21,33)"/>
<path d="M0 0 C0.7425 0.0825 1.485 0.165 2.25 0.25 C2.25 1.24 2.25 2.23 2.25 3.25 C1.528125 3.3325 0.80625 3.415 0.0625 3.5 C-2.90180383 4.08707894 -2.90180383 4.08707894 -5.3125 6.3125 C-7.75 8.25 -7.75 8.25 -11.75 8.25 C-11.75 8.91 -11.75 9.57 -11.75 10.25 C-13.49639757 10.64143394 -15.24735918 11.01254287 -17 11.375 C-17.97453125 11.58382812 -18.9490625 11.79265625 -19.953125 12.0078125 C-22.98442766 12.2702996 -24.23017346 11.86988849 -26.75 10.25 C-25.58984375 10.10304688 -25.58984375 10.10304688 -24.40625 9.953125 C-16.81608544 8.86344791 -10.06177885 7.6564011 -4.5625 2 C-2.75 0.25 -2.75 0.25 0 0 Z " fill="#71654E" transform="translate(58.75,72.75)"/>
<path d="M0 0 C6.625 0.75 6.625 0.75 10 3 C10.1875 5.625 10.1875 5.625 10 8 C9.34 7.01 8.68 6.02 8 5 C4.48055874 4.17567358 4.48055874 4.17567358 1 4 C-0.87824891 5.87824891 -0.39102397 9.03935276 -0.5625 11.5625 C-0.68818359 13.35880859 -0.68818359 13.35880859 -0.81640625 15.19140625 C-0.87699219 16.11824219 -0.93757813 17.04507813 -1 18 C-1.33 18 -1.66 18 -2 18 C-2.25034126 15.9399629 -2.47443346 13.87672534 -2.6875 11.8125 C-2.81511719 10.66394531 -2.94273438 9.51539062 -3.07421875 8.33203125 C-2.99142924 4.61521817 -2.16836289 2.95989896 0 0 Z " fill="#73664E" transform="translate(23,59)"/>
<path d="M0 0 C0 0.99 0 1.98 0 3 C-0.515625 2.835 -1.03125 2.67 -1.5625 2.5 C-5.87709151 1.61495559 -9.82126148 1.60708716 -14 3 C-14 5.97 -14 8.94 -14 12 C-14.99 12.33 -15.98 12.66 -17 13 C-17.10824843 11.3973218 -17.18570645 9.79254252 -17.25 8.1875 C-17.29640625 7.29417969 -17.3428125 6.40085937 -17.390625 5.48046875 C-17 3 -17 3 -15.265625 1.22265625 C-12.87268891 -0.06870409 -11.19459675 -0.51007015 -8.5 -0.75 C-7.7471875 -0.82734375 -6.994375 -0.9046875 -6.21875 -0.984375 C-3.96353729 -1.00025678 -2.15219991 -0.64565997 0 0 Z " fill="#6A5D47" transform="translate(64,48)"/>
<path d="M0 0 C0.33 0 0.66 0 1 0 C1.33 1.65 1.66 3.3 2 5 C7.28 6.65 12.56 8.3 18 10 C14.1184112 12.58772586 12.46573523 11.87719799 8 11 C7.01 10.67 6.02 10.34 5 10 C5 9.34 5 8.68 5 8 C3.35 7.67 1.7 7.34 0 7 C0 4.69 0 2.38 0 0 Z " fill="#635742" transform="translate(67,63)"/>
<path d="M0 0 C2.31 0 4.62 0 7 0 C7.33 1.65 7.66 3.3 8 5 C5.29120665 6.35439668 2.99066732 6.06501451 0 6 C0 4.02 0 2.04 0 0 Z " fill="#292115" transform="translate(52,52)"/>
<path d="M0 0 C0.33 0 0.66 0 1 0 C1.33 4.29 1.66 8.58 2 13 C2.66 13 3.32 13 4 13 C4.99 14.485 4.99 14.485 6 16 C8.42521494 16.58189266 8.42521494 16.58189266 11.125 16.6875 C12.49011719 16.78611328 12.49011719 16.78611328 13.8828125 16.88671875 C14.58148438 16.92410156 15.28015625 16.96148437 16 17 C16 17.33 16 17.66 16 18 C13.87527424 18.05386629 11.75016348 18.09273071 9.625 18.125 C8.44164062 18.14820312 7.25828125 18.17140625 6.0390625 18.1953125 C3 18 3 18 1 16 C-0.21321333 12.61215901 -0.10128696 9.31840018 -0.0625 5.75 C-0.04896484 4.13351563 -0.04896484 4.13351563 -0.03515625 2.484375 C-0.02355469 1.66453125 -0.01195313 0.8446875 0 0 Z " fill="#5C503F" transform="translate(2,37)"/>
<path d="M0 0 C0.66 0.66 1.32 1.32 2 2 C1.75 3.875 1.75 3.875 1 6 C0.773125 6.70125 0.54625 7.4025 0.3125 8.125 C-1.68993374 10.98561962 -3.63300138 11.30118897 -7 12 C-10.875 11.625 -10.875 11.625 -14 11 C-14 10.67 -14 10.34 -14 10 C-12.7625 9.855625 -11.525 9.71125 -10.25 9.5625 C-7.43495501 9.21311498 -4.7298503 8.79620634 -2 8 C-1.855625 7.236875 -1.71125 6.47375 -1.5625 5.6875 C-1 3 -1 3 0 0 Z " fill="#6D5F4A" transform="translate(90,74)"/>
<path d="M0 0 C1.35439668 2.70879335 1.06501451 5.00933268 1 8 C1.66 8.33 2.32 8.66 3 9 C3 9.66 3 10.32 3 11 C3.66 11 4.32 11 5 11 C4.25 13.9375 4.25 13.9375 3 17 C0.875 17.875 0.875 17.875 -1 18 C-0.70703125 15.94921875 -0.4140625 13.8984375 -0.12109375 11.84765625 C-0.08113281 11.23792969 -0.04117188 10.62820312 0 10 C-0.33 9.67 -0.66 9.34 -1 9 C-1.1328125 7.1875 -1.1328125 7.1875 -1.125 5 C-1.12757812 4.278125 -1.13015625 3.55625 -1.1328125 2.8125 C-1 1 -1 1 0 0 Z " fill="#5B4F3A" transform="translate(50,50)"/>
<path d="M0 0 C8.48 -0.32615385 8.48 -0.32615385 11 2 C11.65080561 4.70249785 11.81963497 7.204342 12 10 C10.35 10 8.7 10 7 10 C7 7.69 7 5.38 7 3 C4.69 2.34 2.38 1.68 0 1 C0 0.67 0 0.34 0 0 Z " fill="#554B38" transform="translate(53,49)"/>
<path d="M0 0 C3.625 0.375 3.625 0.375 7 1 C7.33 2.32 7.66 3.64 8 5 C7.34 4.34 6.68 3.68 6 3 C4.35 3 2.7 3 1 3 C0.67 6.3 0.34 9.6 0 13 C-0.66 12.67 -1.32 12.34 -2 12 C-2.05395478 10.37536158 -2.09277195 8.75021459 -2.125 7.125 C-2.14820312 6.22007813 -2.17140625 5.31515625 -2.1953125 4.3828125 C-2 2 -2 2 0 0 Z " fill="#635741" transform="translate(24,62)"/>
<path d="M0 0 C1.58294782 -0.05437607 3.16644256 -0.09296271 4.75 -0.125 C5.63171875 -0.14820312 6.5134375 -0.17140625 7.421875 -0.1953125 C10.1135858 0.00860498 11.69904974 0.63448279 14 2 C14 4.64 14 7.28 14 10 C13.34 9.01 12.68 8.02 12 7 C11.29875 6.319375 10.5975 5.63875 9.875 4.9375 C8 3 8 3 8 1 C5.36 1 2.72 1 0 1 C0 0.67 0 0.34 0 0 Z " fill="#4D4331" transform="translate(100,32)"/>
<path d="M0 0 C2.5691997 0.94203989 3.78416047 1.65465675 5.25 4 C6.33393574 8.33574295 6.15537158 12.55464657 6 17 C5.67 17 5.34 17 5 17 C4.80664062 16.10796875 4.61328125 15.2159375 4.4140625 14.296875 C4.15367188 13.12640625 3.89328125 11.9559375 3.625 10.75 C3.36976562 9.58984375 3.11453125 8.4296875 2.8515625 7.234375 C2.14203595 4.53947599 1.36903611 2.40474168 0 0 Z " fill="#292418" transform="translate(108,35)"/>
<path d="M0 0 C1.64574566 -0.02688151 3.29161413 -0.04634123 4.9375 -0.0625 C5.85402344 -0.07410156 6.77054688 -0.08570312 7.71484375 -0.09765625 C10 0 10 0 11 1 C11.07258946 3.18639453 11.08373783 5.37500389 11.0625 7.5625 C11.05347656 8.76003906 11.04445313 9.95757812 11.03515625 11.19140625 C11.02355469 12.11824219 11.01195312 13.04507813 11 14 C10.67 14 10.34 14 10 14 C9.93941406 13.30132812 9.87882812 12.60265625 9.81640625 11.8828125 C9.73261719 10.97273438 9.64882813 10.06265625 9.5625 9.125 C9.48128906 8.22007813 9.40007813 7.31515625 9.31640625 6.3828125 C9.13010715 3.98889139 9.13010715 3.98889139 8 2 C6.10466658 1.53476937 6.10466658 1.53476937 3.9375 1.375 C2.638125 1.25125 1.33875 1.1275 0 1 C0 0.67 0 0.34 0 0 Z " fill="#3A3325" transform="translate(10,30)"/>
<path d="M0 0 C1.09570312 0.00902344 2.19140625 0.01804687 3.3203125 0.02734375 C4.16335937 0.03894531 5.00640625 0.05054687 5.875 0.0625 C5.875 0.3925 5.875 0.7225 5.875 1.0625 C5.30652344 1.07667969 4.73804688 1.09085938 4.15234375 1.10546875 C-2.10274682 1.49184329 -5.31263354 3.06925974 -10.125 7.0625 C-9.52316251 5.04204558 -8.85193904 3.04138961 -8.125 1.0625 C-5.36047967 -0.31976016 -3.0788637 -0.03275387 0 0 Z " fill="#514734" transform="translate(13.125,28.9375)"/>
<path d="M0 0 C0.99 0.33 1.98 0.66 3 1 C3.226875 1.66 3.45375 2.32 3.6875 3 C4.79313253 5.17515433 4.79313253 5.17515433 6.90234375 5.484375 C8.92773766 5.72642559 10.96442585 5.86867264 13 6 C13 6.33 13 6.66 13 7 C11.5629191 7.05422947 10.12524538 7.09289723 8.6875 7.125 C7.88699219 7.14820312 7.08648437 7.17140625 6.26171875 7.1953125 C4 7 4 7 1 5 C0.3125 2.375 0.3125 2.375 0 0 Z " fill="#534836" transform="translate(31,67)"/>
<path d="M0 0 C0.56203125 0.31710938 1.1240625 0.63421875 1.703125 0.9609375 C4.15196317 2.06874525 6.08387855 2.38975399 8.75 2.625 C9.54921875 2.69976562 10.3484375 2.77453125 11.171875 2.8515625 C11.77515625 2.90054688 12.3784375 2.94953125 13 3 C9.46144391 4.91831011 7.06514808 5.43246256 3 5 C1.125 3.625 1.125 3.625 0 2 C0 1.34 0 0.68 0 0 Z " fill="#382F20" transform="translate(31,71)"/>
<path d="M0 0 C1.32 0.33 2.64 0.66 4 1 C4 1.66 4 2.32 4 3 C3.34 3 2.68 3 2 3 C2.66 5.31 3.32 7.62 4 10 C1 8 1 8 0.48828125 6.0546875 C0.32552083 4.03645833 0.16276042 2.01822917 0 0 Z " fill="#312919" transform="translate(26,67)"/>
<path d="M0 0 C0.33 1.32 0.66 2.64 1 4 C-2.08888522 6.05925681 -2.70935927 6.2390374 -6.1875 6.125 C-8.0746875 6.063125 -8.0746875 6.063125 -10 6 C-10 5.67 -10 5.34 -10 5 C-8.72125 4.9175 -7.4425 4.835 -6.125 4.75 C-3.94666582 4.54130069 -3.94666582 4.54130069 -2 4 C-0.4100567 2.07935207 -0.4100567 2.07935207 0 0 Z " fill="#584D39" transform="translate(113,54)"/>
</svg>
